<svg width="40" height="40" viewBox="0 0 40 40" fill="none" xmlns="http://www.w3.org/2000/svg">
<rect width="40" height="40" rx="5" fill="#D0D2D5"/>
<g clip-path="url(#clip0_45_398)">
<path d="M30.3963 10.0695C28.4842 9.19211 26.4337 8.54572 24.2899 8.1755C24.2508 8.16836 24.2118 8.18621 24.1917 8.22193C23.928 8.69095 23.6359 9.30282 23.4314 9.78375C21.1255 9.43854 18.8315 9.43854 16.5729 9.78375C16.3683 9.29213 16.0656 8.69095 15.8007 8.22193C15.7806 8.18741 15.7416 8.16955 15.7026 8.1755C13.5599 8.54454 11.5095 9.19093 9.59617 10.0695C9.57961 10.0766 9.56541 10.0885 9.55599 10.104C5.66674 15.9144 4.60131 21.5821 5.12398 27.1794C5.12634 27.2068 5.14171 27.233 5.163 27.2497C7.72901 29.1341 10.2146 30.2781 12.6541 31.0364C12.6931 31.0483 12.7345 31.034 12.7594 31.0019C13.3364 30.2138 13.8508 29.3829 14.2918 28.5091C14.3179 28.4579 14.293 28.3972 14.2398 28.377C13.4239 28.0675 12.647 27.6901 11.8997 27.2616C11.8405 27.2271 11.8358 27.1425 11.8902 27.102C12.0475 26.9842 12.2048 26.8616 12.3549 26.7378C12.3821 26.7152 12.42 26.7104 12.4519 26.7247C17.3616 28.9663 22.6769 28.9663 27.5287 26.7247C27.5606 26.7092 27.5985 26.714 27.6268 26.7366C27.7771 26.8604 27.9343 26.9842 28.0928 27.102C28.1472 27.1425 28.1436 27.2271 28.0845 27.2616C27.3372 27.6984 26.5602 28.0675 25.7431 28.3758C25.6899 28.396 25.6663 28.4579 25.6923 28.5091C26.1428 29.3817 26.6572 30.2126 27.2236 31.0007C27.2473 31.034 27.2898 31.0483 27.3289 31.0364C29.7802 30.2781 32.2658 29.1341 34.8318 27.2497C34.8543 27.233 34.8685 27.208 34.8708 27.1806C35.4964 20.7095 33.8231 15.0883 30.4353 10.1052C30.427 10.0885 30.4128 10.0766 30.3963 10.0695ZM15.025 23.7712C13.5469 23.7712 12.3289 22.4142 12.3289 20.7476C12.3289 19.081 13.5233 17.7239 15.025 17.7239C16.5386 17.7239 17.7448 19.0929 17.7211 20.7476C17.7211 22.4142 16.5268 23.7712 15.025 23.7712ZM24.9934 23.7712C23.5153 23.7712 22.2974 22.4142 22.2974 20.7476C22.2974 19.081 23.4917 17.7239 24.9934 17.7239C26.507 17.7239 27.7132 19.0929 27.6895 20.7476C27.6895 22.4142 26.507 23.7712 24.9934 23.7712Z" fill="#5865F2"/>
</g>
<defs>
<clipPath id="clip0_45_398">
<rect width="30" height="23.2394" fill="white" transform="translate(5 8)"/>
</clipPath>
</defs>
</svg>
