<svg width="40" height="40" viewBox="0 0 40 40" fill="none" xmlns="http://www.w3.org/2000/svg">
<rect width="40" height="40" rx="5" fill="#D0D2D5"/>
<g clip-path="url(#clip0_45_402)">
<path d="M20.0001 5C11.7169 5 5 11.7156 5 20.0001C5 26.6276 9.29799 32.2503 15.258 34.2337C16.0077 34.3726 16.2829 33.9083 16.2829 33.5121C16.2829 33.1544 16.269 31.9728 16.2625 30.7194C12.0895 31.6268 11.2089 28.9496 11.2089 28.9496C10.5266 27.2158 9.54341 26.7548 9.54341 26.7548C8.18245 25.8238 9.64599 25.8429 9.64599 25.8429C11.1523 25.9487 11.9454 27.3887 11.9454 27.3887C13.2833 29.6818 15.4545 29.0189 16.3105 28.6356C16.4451 27.6661 16.8338 27.0044 17.2628 26.6298C13.9311 26.2505 10.4287 24.9643 10.4287 19.2167C10.4287 17.579 11.0147 16.2409 11.9742 15.1904C11.8185 14.8126 11.305 13.287 12.1195 11.2208C12.1195 11.2208 13.3791 10.8177 16.2456 12.7584C17.4421 12.426 18.7254 12.2594 20.0001 12.2537C21.2749 12.2594 22.5591 12.426 23.7579 12.7584C26.6209 10.8177 27.8787 11.2208 27.8787 11.2208C28.6952 13.287 28.1815 14.8126 28.0258 15.1904C28.9876 16.2409 29.5696 17.579 29.5696 19.2167C29.5696 24.978 26.0605 26.2465 22.7203 26.6179C23.2583 27.0834 23.7377 27.9962 23.7377 29.3957C23.7377 31.4027 23.7203 33.018 23.7203 33.5121C23.7203 33.9113 23.9904 34.379 24.7507 34.2317C30.7075 32.246 35 26.6253 35 20.0001C35 11.7156 28.2841 5 20.0001 5ZM10.618 26.368C10.585 26.4425 10.4678 26.4649 10.3609 26.4137C10.2521 26.3648 10.191 26.2632 10.2263 26.1884C10.2586 26.1116 10.3761 26.0903 10.4846 26.1417C10.5937 26.1906 10.6558 26.2932 10.618 26.368ZM11.3559 27.0264C11.2843 27.0927 11.1445 27.0619 11.0496 26.9571C10.9515 26.8525 10.9331 26.7126 11.0056 26.6453C11.0794 26.579 11.215 26.61 11.3134 26.7146C11.4115 26.8204 11.4306 26.9593 11.3559 27.0264ZM11.8621 27.8687C11.7702 27.9326 11.6199 27.8727 11.527 27.7393C11.4351 27.6059 11.4351 27.4459 11.529 27.3819C11.6221 27.3178 11.7702 27.3754 11.8643 27.5078C11.956 27.6434 11.956 27.8034 11.8621 27.8687ZM12.7181 28.8443C12.6359 28.9349 12.4608 28.9106 12.3326 28.7869C12.2015 28.6659 12.165 28.4943 12.2474 28.4036C12.3306 28.3127 12.5067 28.3383 12.6359 28.461C12.7661 28.5817 12.8058 28.7546 12.7181 28.8443ZM13.8245 29.1736C13.7882 29.2911 13.6196 29.3445 13.4497 29.2946C13.28 29.2432 13.169 29.1056 13.2033 28.9868C13.2385 28.8686 13.408 28.8129 13.5791 28.8664C13.7485 28.9175 13.8598 29.0541 13.8245 29.1736ZM15.0836 29.3133C15.0878 29.437 14.9438 29.5396 14.7654 29.5418C14.5861 29.5458 14.441 29.4457 14.439 29.324C14.439 29.1991 14.5799 29.0975 14.7592 29.0945C14.9376 29.091 15.0836 29.1904 15.0836 29.3133ZM16.3206 29.2659C16.3419 29.3866 16.218 29.5106 16.0409 29.5436C15.8667 29.5754 15.7055 29.5009 15.6834 29.3812C15.6618 29.2575 15.788 29.1335 15.9619 29.1015C16.1392 29.0707 16.298 29.1432 16.3206 29.2659Z" fill="#161614"/>
</g>
<defs>
<clipPath id="clip0_45_402">
<rect width="30" height="29.2969" fill="white" transform="translate(5 5)"/>
</clipPath>
</defs>
</svg>
