<svg width="16" height="16" viewBox="0 0 16 16" fill="none" xmlns="http://www.w3.org/2000/svg">
<path fill-rule="evenodd" clip-rule="evenodd" d="M8.00001 4C8.13261 4 8.25979 4.05268 8.35356 4.14645C8.44733 4.24021 8.50001 4.36739 8.50001 4.5V10.293L10.646 8.146C10.6925 8.09951 10.7477 8.06264 10.8084 8.03748C10.8692 8.01232 10.9343 7.99937 11 7.99937C11.0658 7.99937 11.1309 8.01232 11.1916 8.03748C11.2523 8.06264 11.3075 8.09951 11.354 8.146C11.4005 8.19249 11.4374 8.24768 11.4625 8.30842C11.4877 8.36916 11.5006 8.43426 11.5006 8.5C11.5006 8.56574 11.4877 8.63084 11.4625 8.69158C11.4374 8.75232 11.4005 8.80751 11.354 8.854L8.35401 11.854C8.30756 11.9006 8.25238 11.9375 8.19164 11.9627C8.13089 11.9879 8.06577 12.0009 8.00001 12.0009C7.93424 12.0009 7.86912 11.9879 7.80837 11.9627C7.74763 11.9375 7.69245 11.9006 7.64601 11.854L4.64601 8.854C4.59952 8.80751 4.56264 8.75232 4.53748 8.69158C4.51232 8.63084 4.49937 8.56574 4.49937 8.5C4.49937 8.43426 4.51232 8.36916 4.53748 8.30842C4.56264 8.24768 4.59952 8.19249 4.64601 8.146C4.73989 8.05211 4.86723 7.99937 5.00001 7.99937C5.06575 7.99937 5.13085 8.01232 5.19159 8.03748C5.25233 8.06264 5.30752 8.09951 5.35401 8.146L7.50001 10.293V4.5C7.50001 4.36739 7.55268 4.24021 7.64645 4.14645C7.74022 4.05268 7.8674 4 8.00001 4V4Z" fill="#D0D2D5"/>
</svg>
