<svg width="16" height="16" viewBox="0 0 16 16" fill="none" xmlns="http://www.w3.org/2000/svg">
<path fill-rule="evenodd" clip-rule="evenodd" d="M1.00008 7.99999C1.00008 8.1326 1.05276 8.25978 1.14653 8.35354C1.2403 8.44731 1.36747 8.49999 1.50008 8.49999L13.2931 8.49999L10.1461 11.646C10.0522 11.7399 9.99945 11.8672 9.99945 12C9.99945 12.1328 10.0522 12.2601 10.1461 12.354C10.24 12.4479 10.3673 12.5006 10.5001 12.5006C10.6329 12.5006 10.7602 12.4479 10.8541 12.354L14.8541 8.35399C14.9006 8.30754 14.9376 8.25237 14.9628 8.19162C14.988 8.13088 15.001 8.06576 15.001 7.99999C15.001 7.93422 14.988 7.8691 14.9628 7.80836C14.9376 7.74761 14.9006 7.69244 14.8541 7.64599L10.8541 3.64599C10.8076 3.5995 10.7524 3.56263 10.6917 3.53747C10.6309 3.51231 10.5658 3.49936 10.5001 3.49936C10.3673 3.49936 10.24 3.5521 10.1461 3.64599C10.0522 3.73988 9.99945 3.86721 9.99945 3.99999C9.99945 4.13277 10.0522 4.2601 10.1461 4.35399L13.2931 7.49999L1.50008 7.49999C1.36747 7.49999 1.2403 7.55267 1.14653 7.64644C1.05276 7.74021 1.00008 7.86738 1.00008 7.99999Z" fill="#06855E"/>
</svg>
